<svg xmlns="http://www.w3.org/2000/svg" viewBox="-13099 1067 476.078 31.915">
  <defs>
    <style>
      .cls-1 {
        fill: #fff;
      }
    </style>
  </defs>
  <g id="Group_143" data-name="Group 143" transform="translate(-13099 1067)">
    <path id="Path_640" data-name="Path 640" class="cls-1" d="M19.872,5.42,13.85,15.657v6.865c.723,1.686,2.409,1.927,4.215,1.927v.963H6.022v-.963c1.686-.12,3.733-.361,4.336-1.445V15.9L4.215,5.54A4.513,4.513,0,0,0,0,3.011V2.047H10.357v.963a5.352,5.352,0,0,0-3.131.843l5.781,9.876,5.66-9.876a5.105,5.105,0,0,0-3.252-.963V2.047h8.671v.963A4.41,4.41,0,0,0,19.872,5.42ZM31.915,25.773A2.856,2.856,0,0,1,28.9,23.485a6.467,6.467,0,0,1-4.456,2.288A3.453,3.453,0,0,1,20.715,22.4a5.722,5.722,0,0,1,.723-2.89l7.467-2.65v-2.77c0-1.686-.723-3.252-2.409-3.252-.963,0-1.927,1.2-2.047,3.131l-3.252.6v-.361c1.084-3.252,4.7-4.577,6.5-4.577,3.372,0,4.577,1.807,4.577,4.456l-.12,7.708c0,1.566.723,1.927,1.566,1.927a2.9,2.9,0,0,0,1.927-1.084v1.084C34.565,24.569,33.24,25.773,31.915,25.773Zm-7.347-6.022a8.38,8.38,0,0,0-.241,1.927,1.943,1.943,0,0,0,1.807,2.168,4.491,4.491,0,0,0,2.77-1.084V17.824C27.941,18.186,25.532,19.27,24.569,19.751Zm11.2,5.66v-.843c1.686-.12,2.168-.482,2.409-1.084V4.456c0-1.2-.241-1.807-2.77-1.927V1.686L42.152,0l.241.6L41.309,1.927V23.485c.361.723,1.084.963,2.529,1.084v.843Zm16.981.361c-3.854,0-6.865-3.011-6.865-7.347,0-5.179,3.252-8.792,7.708-8.792,3.613,0,5.66,2.047,5.66,5.3v.723l-9.876-.12a8.021,8.021,0,0,0-.12,1.927c0,3.733,2.409,6.263,5.54,6.263,1.927,0,2.89-.6,4.336-1.927l.6.843C57.447,24.448,55.761,25.773,52.75,25.773Zm.361-15.054c-1.807,0-3.131,1.445-3.613,3.733l6.5-.12C56,12.525,54.8,10.719,53.112,10.719Z"/>
    <path id="Path_641" data-name="Path 641" class="cls-1" d="M67.2,14.726c2.168.6,3.372,1.927,3.372,3.613,0,3.613-2.89,5.54-7.347,5.54H55.4l.12-.6c1.2,0,2.77-.361,3.252-1.2l2.77-13.007c-.12-.482-1.084-.843-2.288-.843l.12-.6c3.372,0,4.215-.12,6.263-.12,3.613,0,5.058,1.445,5.058,3.131S69.852,13.642,67.2,14.726Zm-3.493.482h-1.2L61.06,21.952c.241.843,1.325,1.084,2.529,1.084a4.364,4.364,0,0,0,4.456-4.7C68.046,16.412,65.878,15.208,63.71,15.208Zm1.084-6.744h-.843l-1.325,6.022h2.047c.6,0,1.2.12,1.686.12a4.151,4.151,0,0,0,1.927-3.372C68.287,9.547,67.082,8.463,64.794,8.463Z" transform="translate(11.321 1.533)"/>
    <path id="Path_642" data-name="Path 642" class="cls-1" d="M71.847,17.963v.963c0,1.807.723,3.011,1.807,3.011.843,0,1.927-.843,3.131-2.168l.361.361c-1.686,2.047-3.493,3.011-4.7,3.011-1.566,0-2.65-1.686-2.65-3.974a8.021,8.021,0,0,1,2.168-5.3A5.555,5.555,0,0,1,75.822,11.7a1.969,1.969,0,0,1,2.168,1.927C77.869,15.313,75.822,16.879,71.847,17.963ZM74.136,12.9c-.963.6-1.927,2.409-2.288,4.456a9.147,9.147,0,0,0,3.974-2.047c0-.12.12-.361.12-.482C75.942,13.747,75.822,12.9,74.136,12.9Z" transform="translate(14.263 2.391)"/>
    <path id="Path_643" data-name="Path 643" class="cls-1" d="M79.045,24.345c-.6,0-.723-.843-.723-1.686,0-.482.241-1.325.361-2.168l1.2-4.577c.12-.6.361-1.445.361-1.445,0-.12,0-.241-.12-.241-.361,0-1.084.723-2.047,2.168l-.482-.361c1.445-2.047,2.529-3.011,3.733-3.011.6,0,.723.723.723,1.445a2.049,2.049,0,0,1-.12.843l-1.445,5.9c0,.241-.12.6-.12.843,0,.361.12.843.361.843a8,8,0,0,0,2.047-1.927l.482.361C81.815,23.02,80.37,24.345,79.045,24.345Zm2.89-15.416a1.239,1.239,0,0,1-1.325-1.2,1.325,1.325,0,0,1,2.65,0A1.319,1.319,0,0,1,81.936,8.929Z" transform="translate(15.857 1.308)"/>
    <path id="Path_644" data-name="Path 644" class="cls-1" d="M90.928,23.241c-.6,0-.723-.843-.723-1.686a8.124,8.124,0,0,1,.361-2.047l1.325-5.3c0-.6,0-.843-.482-.843s-2.77,2.409-4.817,4.817L85.629,23H83.7l1.686-8.19.361-1.445c0-.12,0-.241-.12-.241-.361,0-1.084.723-2.047,2.168l-.482-.361c1.445-2.047,2.529-3.011,3.613-3.011.6,0,.843.723.843,1.445,0,.241-.12.6-.12.843l-.6,2.77c2.288-2.77,4.577-5.179,5.9-5.179.482,0,1.084.963,1.084,1.686a7.387,7.387,0,0,1-.361,1.927l-1.2,4.7a2.993,2.993,0,0,0-.12.963c0,.361,0,.6.361.6a9.186,9.186,0,0,0,2.168-2.047l.482.361C93.578,21.917,92.253,23.241,90.928,23.241Z" transform="translate(16.981 2.411)"/>
    <path id="Path_645" data-name="Path 645" class="cls-1" d="M96.247,17.963v.963c0,1.807.723,3.011,1.807,3.011.843,0,1.927-.843,3.131-2.168l.361.361c-1.686,2.047-3.493,3.011-4.7,3.011-1.566,0-2.65-1.686-2.65-3.974a8.021,8.021,0,0,1,2.168-5.3,5.555,5.555,0,0,1,3.854-2.168,1.969,1.969,0,0,1,2.168,1.927C102.269,15.313,100.222,16.879,96.247,17.963ZM98.536,12.9c-.963.6-1.927,2.409-2.288,4.456a9.147,9.147,0,0,0,3.974-2.047c0-.12.12-.361.12-.482C100.463,13.747,100.222,12.9,98.536,12.9Z" transform="translate(19.249 2.391)"/>
    <path id="Path_646" data-name="Path 646" class="cls-1" d="M108.665,14.57a3.457,3.457,0,0,0-2.65-1.445c-.843.482-2.168,2.77-2.168,5.42s.843,3.493,1.807,3.493c.723,0,1.927-.843,3.131-2.168l.361.361c-1.686,2.047-3.493,3.011-4.7,3.011-1.566,0-2.65-1.686-2.65-3.974a8.537,8.537,0,0,1,2.047-5.3,5.355,5.355,0,0,1,3.974-2.168c1.325,0,2.047.723,2.047,1.325C109.99,13.607,109.147,14.329,108.665,14.57Z" transform="translate(20.802 2.411)"/>
    <path id="Path_647" data-name="Path 647" class="cls-1" d="M115.965,24.386c-.361,0-.843-.6-1.084-.963a29.086,29.086,0,0,1-2.168-4.336l-.723.361-.963,4.817H109.1l3.011-14.934a3.389,3.389,0,0,0,.12-.963c0-.482-.241-.723-.963-.723-.241,0-.6.12-.963.12l.12-.6,3.733-.963h.361L111.99,18.725a11.711,11.711,0,0,0,4.456-2.409,1.448,1.448,0,0,0,.241-.963,2.2,2.2,0,0,0-.6-1.325,4.583,4.583,0,0,1,2.047-.963c.361,0,.723.482.723.963a2.693,2.693,0,0,1-.361,1.2c-.723,1.325-2.168,2.288-4.215,3.131a28.743,28.743,0,0,0,1.927,3.854c.241.361.482.723.843.723s1.2-.843,2.168-1.927l.482.361C118.373,23.061,117.29,24.386,115.965,24.386Z" transform="translate(22.294 1.267)"/>
    <path id="Path_648" data-name="Path 648" class="cls-1" d="M121.047,17.963v.963c0,1.807.723,3.011,1.807,3.011.843,0,1.927-.843,3.131-2.168l.361.361c-1.686,2.047-3.493,3.011-4.7,3.011-1.566,0-2.65-1.686-2.65-3.974a8.021,8.021,0,0,1,2.168-5.3,5.555,5.555,0,0,1,3.854-2.168,1.969,1.969,0,0,1,2.168,1.927C126.949,15.313,125.022,16.879,121.047,17.963Zm2.288-5.058c-.963.6-1.927,2.409-2.288,4.456a9.147,9.147,0,0,0,3.974-2.047c0-.12.12-.361.12-.482C125.142,13.747,125.022,12.9,123.336,12.9Z" transform="translate(24.317 2.391)"/>
    <path id="Path_649" data-name="Path 649" class="cls-1" d="M147.683,24h-1.807c-2.409,0-2.65,0-3.733-1.807-1.325-2.288-2.047-3.733-2.77-4.938h-3.131l-.963,4.7c.12.843,1.445,1.2,2.65,1.325l-.12.6H130.1l.12-.6a3.184,3.184,0,0,0,2.77-1.2l2.77-12.887c-.12-.6-1.445-.843-2.65-.963l.12-.6c2.77,0,3.613-.12,6.624-.12,3.854,0,5.54,1.325,5.54,3.613a5.77,5.77,0,0,1-3.974,5.3l2.529,4.215a6.569,6.569,0,0,0,1.686,2.047,10.488,10.488,0,0,0,2.288.6ZM139.614,8.463H138.29L136.6,16.292h2.047c3.011,0,4.336-2.168,4.336-4.938C142.987,9.909,141.9,8.463,139.614,8.463Z" transform="translate(26.585 1.533)"/>
    <path id="Path_650" data-name="Path 650" class="cls-1" d="M152.465,23.262c-.6,0-.843-.843-.843-1.686l.723-3.011c-2.047,2.529-4.215,4.577-5.54,4.577-.482,0-1.2-.723-1.2-2.77a7.917,7.917,0,0,1,2.288-5.66,10.858,10.858,0,0,1,6.985-3.011h.723l-1.807,8.43c0,.241-.12.723-.12.963,0,.361,0,.6.241.6.361,0,1.2-.843,2.168-2.047l.482.361C155.235,21.937,153.79,23.262,152.465,23.262Zm-.12-9.755a6.234,6.234,0,0,0-2.529.482c-1.2.963-2.288,2.89-2.288,5.781,0,1.566.361,1.927.723,1.927.482,0,2.409-1.927,4.215-4.215l.843-3.974Z" transform="translate(29.753 2.391)"/>
    <path id="Path_651" data-name="Path 651" class="cls-1" d="M163.569,14.429h-.241a2.349,2.349,0,0,0-1.566-.6c-.6,0-2.288,2.77-2.409,3.493l-1.084,5.66h-1.927l1.686-8.19a8.216,8.216,0,0,0,.12-1.445c0-.12,0-.241-.12-.241-.361,0-1.084.723-2.047,2.168l-.482-.361c1.445-2.047,2.529-3.011,3.613-3.011.6,0,.843.723.843,1.566a2.049,2.049,0,0,1-.12.843l-.241,1.325a8.013,8.013,0,0,1,3.613-3.733,5.328,5.328,0,0,1,1.807.6Z" transform="translate(31.776 2.432)"/>
    <path id="Path_652" data-name="Path 652" class="cls-1" d="M164.847,17.963v.963c0,1.807.723,3.011,1.807,3.011.843,0,1.927-.843,3.131-2.168l.361.361c-1.686,2.047-3.493,3.011-4.7,3.011-1.566,0-2.65-1.686-2.65-3.974a8.021,8.021,0,0,1,2.168-5.3,5.555,5.555,0,0,1,3.854-2.168,1.969,1.969,0,0,1,2.168,1.927C170.869,15.313,168.942,16.879,164.847,17.963Zm2.409-5.058c-.963.6-1.927,2.409-2.288,4.456a9.147,9.147,0,0,0,3.974-2.047c0-.12.12-.361.12-.482C169.063,13.747,168.822,12.9,167.256,12.9Z" transform="translate(33.268 2.391)"/>
    <path id="Path_653" data-name="Path 653" class="cls-1" d="M185.4,14.726c2.168.6,3.372,1.927,3.372,3.613,0,3.613-2.89,5.54-7.347,5.54H173.6l.12-.6c1.2,0,2.77-.361,3.252-1.2l2.77-13.007c-.12-.482-1.084-.843-2.288-.843l.12-.6c3.372,0,4.215-.12,6.263-.12,3.613,0,5.058,1.445,5.058,3.131S188.052,13.642,185.4,14.726Zm-3.493.482h-1.2l-1.445,6.744c.241.843,1.325,1.084,2.529,1.084a4.364,4.364,0,0,0,4.456-4.7C186.246,16.412,184.078,15.208,181.91,15.208Zm1.084-6.744h-.843l-1.325,6.022h2.047c.6,0,1.2.12,1.686.12a4.151,4.151,0,0,0,1.927-3.372C186.487,9.547,185.282,8.463,182.994,8.463Z" transform="translate(35.475 1.533)"/>
    <path id="Path_654" data-name="Path 654" class="cls-1" d="M195.347,20.33c-1.686,2.168-3.493,3.011-4.456,3.011-1.445,0-2.89-1.566-2.89-4.456a6.491,6.491,0,0,1,1.566-4.095c1.566-1.927,3.613-2.89,4.456-2.89,1.445,0,2.89,1.566,2.89,4.456A6.44,6.44,0,0,1,195.347,20.33Zm-2.409-7.467c-1.084,0-3.011,2.288-3.011,5.781,0,2.409.963,3.613,1.927,3.613,1.2,0,3.011-2.288,3.011-5.9C194.865,14.068,194.022,12.863,192.938,12.863Z" transform="translate(38.417 2.432)"/>
    <path id="Path_655" data-name="Path 655" class="cls-1" d="M204.047,20.33c-1.686,2.168-3.493,3.011-4.456,3.011-1.445,0-2.89-1.566-2.89-4.456a6.491,6.491,0,0,1,1.566-4.095c1.566-1.927,3.613-2.89,4.456-2.89,1.445,0,2.89,1.566,2.89,4.456A6.44,6.44,0,0,1,204.047,20.33Zm-2.409-7.467c-1.084,0-3.011,2.288-3.011,5.781,0,2.409.963,3.613,1.927,3.613,1.2,0,3.011-2.288,3.011-5.9C203.565,14.068,202.722,12.863,201.638,12.863Z" transform="translate(40.195 2.432)"/>
    <path id="Path_656" data-name="Path 656" class="cls-1" d="M212.165,24.386c-.361,0-.843-.6-1.084-.963a29.078,29.078,0,0,1-2.168-4.336l-.723.361-.963,4.817H205.3l3.011-14.934a3.389,3.389,0,0,0,.12-.963c0-.482-.241-.723-.964-.723-.241,0-.6.12-.963.12l.12-.6,3.733-.963h.361L208.19,18.725a11.711,11.711,0,0,0,4.456-2.409,1.448,1.448,0,0,0,.241-.963,2.2,2.2,0,0,0-.6-1.325,4.583,4.583,0,0,1,2.047-.963c.361,0,.723.482.723.963a2.692,2.692,0,0,1-.361,1.2c-.723,1.325-2.168,2.288-4.215,3.131a28.745,28.745,0,0,0,1.927,3.854c.241.361.482.723.843.723s1.2-.843,2.168-1.927l.482.361C214.453,23.061,213.369,24.386,212.165,24.386Z" transform="translate(41.952 1.267)"/>
    <path id="Path_657" data-name="Path 657" class="cls-1" d="M233.27,16.771h-1.084a2.347,2.347,0,0,1,.12.963c0,3.372-3.011,6.383-7.347,6.383-3.613,0-5.66-1.686-5.66-4.215,0-2.288,1.566-4.095,4.577-4.938a2.739,2.739,0,0,1-2.047-2.65c0-2.529,2.77-4.215,5.66-4.215,3.011,0,4.095,1.686,4.095,2.168a1.547,1.547,0,0,1-1.2,1.2c-.482-.843-1.566-2.529-3.131-2.529A3.54,3.54,0,0,0,224,12.436c0,1.807.843,2.288,2.89,2.409l-.361.723h-.963a3.93,3.93,0,0,0-3.974,3.974c0,1.927,1.445,3.493,4.095,3.493a5.413,5.413,0,0,0,5.66-5.179,3.714,3.714,0,0,0-.12-1.084,12.519,12.519,0,0,0-2.529-.361c-.361,0-.482.6-.482,1.445,0,.361.12.843.12,1.325h-.361c-.963,0-1.325-.361-1.325-.843a5.371,5.371,0,0,1,3.131-3.372,16.322,16.322,0,0,1,2.409.241,13.09,13.09,0,0,0,2.168.12c.361,0,.482-.723.482-1.566,0-.361-.12-.843-.12-1.2h.361c.843,0,1.325.361,1.325.843C236.161,15.447,233.511,16.771,233.27,16.771Z" transform="translate(44.813 1.655)"/>
    <path id="Path_658" data-name="Path 658" class="cls-1" d="M259.566,8.2a2.613,2.613,0,0,0-2.168.843c0,.241-.12.482-.12.723s-.361,2.288-.482,3.131l-1.445,9.514c.12.482,1.325.843,2.409.843l-.12.6h-7.226l.12-.6a3.635,3.635,0,0,0,2.65-.843l1.445-9.394.482-2.65-1.2,2.047-7.828,11.562h-.843l-2.288-12.043-.12-1.686-.241,1.566-3.011,10.478c.12.482,1.325,1.084,2.529,1.084l-.12.6H235.6l.12-.6a3.327,3.327,0,0,0,2.529-1.084L240.9,12.9c.241-.963.843-2.77.843-2.89a2.351,2.351,0,0,0,.12-.843,2.717,2.717,0,0,0-2.288-.843l.12-.6h4.817l.361,2.409,2.047,10.719,7.106-10.6,1.686-2.65h4.095Z" transform="translate(48.144 1.553)"/>
    <path id="Path_659" data-name="Path 659" class="cls-1" d="M262.165,23.262c-.6,0-.843-.843-.843-1.686l.723-3.011c-2.047,2.529-4.215,4.577-5.54,4.577-.482,0-1.2-.723-1.2-2.77a7.917,7.917,0,0,1,2.288-5.66,10.858,10.858,0,0,1,6.985-3.011h.723l-1.807,8.43c0,.241-.121.723-.121.963,0,.361,0,.6.241.6.361,0,1.2-.843,2.168-2.047l.482.361C264.814,21.937,263.49,23.262,262.165,23.262Zm-.12-9.755a6.235,6.235,0,0,0-2.529.482c-1.2.963-2.288,2.89-2.288,5.781,0,1.566.361,1.927.6,1.927.482,0,2.409-1.927,4.215-4.215l.843-3.974Z" transform="translate(52.17 2.391)"/>
    <path id="Path_660" data-name="Path 660" class="cls-1" d="M272.928,23.241c-.6,0-.723-.843-.723-1.686a8.125,8.125,0,0,1,.361-2.047l1.325-5.3c0-.6,0-.843-.482-.843s-2.77,2.409-4.817,4.817L267.629,23H265.7l1.686-8.19.361-1.445c0-.12,0-.241-.12-.241-.361,0-1.084.723-2.047,2.168l-.482-.361c1.445-2.047,2.529-3.011,3.613-3.011.6,0,.843.723.843,1.445,0,.241-.12.6-.12.843l-.6,2.77c2.288-2.77,4.577-5.179,5.9-5.179.482,0,1.084.963,1.084,1.686a7.389,7.389,0,0,1-.361,1.927l-1.2,4.7a2.992,2.992,0,0,0-.12.963c0,.361,0,.6.361.6a9.184,9.184,0,0,0,2.168-2.047l.482.361C275.7,21.917,274.253,23.241,272.928,23.241Z" transform="translate(54.172 2.411)"/>
    <path id="Path_661" data-name="Path 661" class="cls-1" d="M283.908,23.221c-.6,0-.723-.843-.723-1.686a33.088,33.088,0,0,1,.843-3.613c-2.288,2.89-4.576,5.3-6.022,5.3-.482,0-1.084-.963-1.084-1.686a7.388,7.388,0,0,1,.361-1.927l1.2-4.7.361-1.445c0-.12,0-.361-.12-.361-.361,0-1.084.723-2.047,2.168l-.482-.361c1.445-2.047,2.529-3.011,3.733-3.011.6,0,.843.723.843,1.566a1.528,1.528,0,0,1-.12.723c-.723,2.65-1.445,5.66-1.686,6.624,0,.723.12.963.482.963.482,0,2.65-2.288,4.7-4.817l.964-4.817h1.927l-1.807,8.19a6.79,6.79,0,0,1-.12.843c0,.361,0,.6.361.6a9.185,9.185,0,0,0,2.168-2.047l.482.361C286.557,21.9,285.233,23.221,283.908,23.221Z" transform="translate(56.44 2.432)"/>
    <path id="Path_662" data-name="Path 662" class="cls-1" d="M293.385,14.45A3.222,3.222,0,0,0,290.856,13h-.241a2.028,2.028,0,0,0-.6,1.445,2.007,2.007,0,0,0,.482,1.325c.6.723,1.325,1.325,1.806,1.927a2.974,2.974,0,0,1,.963,1.927c0,1.807-1.927,3.613-4.336,3.613a2.413,2.413,0,0,1-2.529-1.686c0-.361.843-1.084,1.2-1.2a3.668,3.668,0,0,0,3.011,1.807.724.724,0,0,0,.482-.12,1.763,1.763,0,0,0,.723-1.325c0-.843-.964-1.566-1.927-2.529s-1.566-1.686-1.566-2.65c0-1.686,2.168-3.733,3.974-3.733,1.325,0,2.168.843,2.168,1.325C294.59,13.607,293.867,14.209,293.385,14.45Z" transform="translate(58.525 2.411)"/>
    <path id="Path_663" data-name="Path 663" class="cls-1" d="M300.765,14.57a3.457,3.457,0,0,0-2.65-1.445c-.843.482-2.168,2.77-2.168,5.42s.843,3.493,1.807,3.493c.723,0,1.927-.843,3.131-2.168l.361.361c-1.686,2.047-3.493,3.011-4.7,3.011-1.566,0-2.65-1.686-2.65-3.974a8.537,8.537,0,0,1,2.047-5.3,5.355,5.355,0,0,1,3.974-2.168c1.325,0,2.047.723,2.047,1.325C302.09,13.607,301.247,14.329,300.765,14.57Z" transform="translate(60.057 2.411)"/>
    <path id="Path_664" data-name="Path 664" class="cls-1" d="M309.369,14.429h-.241a2.349,2.349,0,0,0-1.566-.6c-.6,0-2.288,2.77-2.409,3.493l-1.084,5.66h-1.927l1.686-8.19a8.217,8.217,0,0,0,.12-1.445c0-.12,0-.241-.12-.241-.361,0-1.084.723-2.047,2.168l-.482-.361c1.445-2.047,2.529-3.011,3.613-3.011.6,0,.843.723.843,1.566a2.05,2.05,0,0,1-.12.843l-.241,1.325a8.013,8.013,0,0,1,3.613-3.733,5.328,5.328,0,0,1,1.807.6Z" transform="translate(61.57 2.432)"/>
    <path id="Path_665" data-name="Path 665" class="cls-1" d="M310.745,24.345c-.6,0-.723-.843-.723-1.686,0-.482.241-1.325.361-2.168l1.2-4.577c.12-.6.361-1.445.361-1.445,0-.12,0-.241-.12-.241-.361,0-1.084.723-2.047,2.168l-.482-.361c1.445-2.047,2.529-3.011,3.733-3.011.6,0,.723.723.723,1.445a2.049,2.049,0,0,1-.12.843l-1.445,5.9c0,.241-.12.6-.12.843,0,.361.12.843.361.843a8,8,0,0,0,2.047-1.927l.482.361C313.395,23.02,312.07,24.345,310.745,24.345Zm2.89-15.416a1.239,1.239,0,0,1-1.325-1.2,1.325,1.325,0,0,1,2.65,0A1.415,1.415,0,0,1,313.636,8.929Z" transform="translate(63.204 1.308)"/>
    <path id="Path_666" data-name="Path 666" class="cls-1" d="M324.062,20.471c-1.445,1.927-3.011,2.77-4.576,2.77a4.047,4.047,0,0,1-1.686-.6l-.843,4.336a4.149,4.149,0,0,0-.12,1.084c0,.6,1.084.843,1.927.843h.12v.6H312.5v-.482c1.806-.241,2.288-.482,2.65-1.927l2.409-12.164a10.73,10.73,0,0,0,.241-1.325c0-.12,0-.361-.12-.361-.361,0-.964.6-2.047,1.807l-.482-.361c1.325-1.566,2.77-2.89,4.095-2.89.241,0,.361.361.361.843a22.2,22.2,0,0,1-.361,3.252c2.288-2.65,4.215-3.974,4.938-3.974s1.686,1.686,1.686,4.095A7.627,7.627,0,0,1,324.062,20.471Zm-1.2-7.106c-.361,0-1.927,1.325-3.854,3.613l-.843,4.215a4.422,4.422,0,0,0,3.252.963c1.325-.843,2.529-3.493,2.529-6.5C323.821,14.088,323.46,13.366,322.857,13.366Z" transform="translate(63.858 2.411)"/>
    <path id="Path_667" data-name="Path 667" class="cls-1" d="M331.242,13.654h-2.65L327.268,20.4c0,.241-.12.843-.12.963,0,.482.12.843.482.843s1.445-.963,2.529-2.288l.482.361c-1.566,2.047-3.131,3.252-4.456,3.252-.6,0-.963-.843-.963-1.686a15.377,15.377,0,0,1,.241-2.047l1.2-6.263H325.1l.12-.482A8.115,8.115,0,0,0,328.954,9.8h.6l-.843,2.77h2.77Z" transform="translate(66.433 2.003)"/>
    <path id="Path_668" data-name="Path 668" class="cls-1" d="M347.327,23.859H334.2l.12-.6c1.084,0,2.529-.361,3.011-1.2L340.1,9.045c-.121-.482-1.2-.843-2.409-.843l.12-.6h7.347l-.12.6a3.2,3.2,0,0,0-2.65.963L339.5,22.775l4.7-.12c1.807,0,3.252-1.445,3.733-3.613h.482Z" transform="translate(68.293 1.553)"/>
    <path id="Path_669" data-name="Path 669" class="cls-1" d="M348.445,24.345c-.6,0-.723-.843-.723-1.686,0-.482.241-1.325.361-2.168l1.2-4.577c.12-.6.361-1.445.361-1.445,0-.12,0-.241-.12-.241-.361,0-1.084.723-2.047,2.168L347,16.035c1.445-2.047,2.529-3.011,3.733-3.011.6,0,.723.723.723,1.445a2.05,2.05,0,0,1-.12.843l-1.445,5.9c0,.241-.12.6-.12.843,0,.361.12.843.361.843a8,8,0,0,0,2.047-1.927l.482.361C351.095,23.02,349.77,24.345,348.445,24.345Zm2.89-15.416a1.239,1.239,0,0,1-1.325-1.2,1.325,1.325,0,0,1,2.65,0A1.415,1.415,0,0,1,351.336,8.929Z" transform="translate(70.908 1.308)"/>
    <path id="Path_670" data-name="Path 670" class="cls-1" d="M360.769,21.616c-1.445,1.927-3.131,2.89-4.7,2.89A4.744,4.744,0,0,1,352.7,22.94l2.77-13.609a3.389,3.389,0,0,0,.12-.963c0-.482-.241-.723-.964-.723-.241,0-.6.12-.963.12l.12-.6,3.734-.963h.361l-2.168,10.839c2.288-2.65,4.336-3.974,4.938-3.974.723,0,1.686,1.686,1.686,4.095C362.576,18.484,361.973,20.05,360.769,21.616Zm-1.325-7.106c-.361,0-1.807,1.325-3.854,3.493l-.843,4.215a4.741,4.741,0,0,0,3.252.963c1.2-.843,2.529-3.493,2.529-6.5C360.528,15.233,360.046,14.51,359.444,14.51Z" transform="translate(72.073 1.267)"/>
    <path id="Path_671" data-name="Path 671" class="cls-1" d="M370.169,14.429h-.241a2.349,2.349,0,0,0-1.566-.6c-.6,0-2.288,2.77-2.409,3.493l-1.084,5.66h-1.927l1.686-8.19a8.217,8.217,0,0,0,.12-1.445c0-.12,0-.241-.12-.241-.361,0-1.084.723-2.047,2.168l-.482-.361c1.445-2.047,2.529-3.011,3.613-3.011.6,0,.843.723.843,1.566a2.05,2.05,0,0,1-.12.843l-.241,1.325a8.012,8.012,0,0,1,3.613-3.733,5.328,5.328,0,0,1,1.807.6Z" transform="translate(73.994 2.432)"/>
    <path id="Path_672" data-name="Path 672" class="cls-1" d="M375.965,23.262c-.6,0-.843-.843-.843-1.686l.723-3.011c-2.047,2.529-4.215,4.577-5.54,4.577-.482,0-1.2-.723-1.2-2.77a7.917,7.917,0,0,1,2.288-5.66,10.857,10.857,0,0,1,6.985-3.011h.723l-1.807,8.43c0,.241-.12.723-.12.963,0,.361,0,.6.241.6.361,0,1.2-.843,2.168-2.047l.482.361C378.735,21.937,377.29,23.262,375.965,23.262Zm0-9.755a6.234,6.234,0,0,0-2.529.482c-1.2.963-2.288,2.89-2.288,5.781,0,1.566.361,1.927.6,1.927.482,0,2.409-1.927,4.215-4.215l.843-3.974Z" transform="translate(75.424 2.391)"/>
    <path id="Path_673" data-name="Path 673" class="cls-1" d="M387.069,14.429h-.241a2.349,2.349,0,0,0-1.566-.6c-.6,0-2.288,2.77-2.409,3.493l-1.084,5.66h-1.927l1.686-8.19a8.219,8.219,0,0,0,.12-1.445c0-.12,0-.241-.12-.241-.361,0-1.084.723-2.047,2.168L379,14.911c1.445-2.047,2.529-3.011,3.613-3.011.6,0,.843.723.843,1.566a2.049,2.049,0,0,1-.12.843l-.241,1.325a8.012,8.012,0,0,1,3.613-3.733,5.329,5.329,0,0,1,1.807.6Z" transform="translate(77.447 2.432)"/>
    <path id="Path_674" data-name="Path 674" class="cls-1" d="M396.582,15.031c-.6,1.566-1.927,4.577-3.131,6.985-2.047,3.974-4.577,7.467-7.467,7.467-.723,0-1.084-.482-1.084-1.2a1.781,1.781,0,0,1,.963-1.325,4.088,4.088,0,0,0,2.288.6c.6-.241,2.288-1.2,3.613-4.456a22.213,22.213,0,0,0-1.686-9.394.938.938,0,0,0-.964-.723c-.361,0-1.325.361-1.325,2.168v.482h-.361v-.6c0-2.288,1.566-3.131,2.529-3.131a2.084,2.084,0,0,1,1.807.963,18.485,18.485,0,0,1,1.686,8.19,19.888,19.888,0,0,0,2.047-7.828c0-1.084.482-1.325.963-1.325a.859.859,0,0,1,.964.843A6.75,6.75,0,0,1,396.582,15.031Z" transform="translate(78.653 2.432)"/>
  </g>
</svg>
